<svg width="300" height="390" viewBox="0 0 300 390" fill="none" xmlns="http://www.w3.org/2000/svg">
<g clip-path="url(#clip0_4002_544)">
<path d="M66.6918 8.73636C56.5062 8.73685 46.5593 8.72605 36.6125 8.74014C20.9837 8.76229 9.08316 20.5815 9.0772 36.1935C9.05401 96.9647 9.06535 157.736 9.06446 218.507C9.06398 252.031 9.05958 285.554 9.07031 319.077C9.07196 324.254 10.5782 328.943 13.946 332.936C18.1195 337.885 22.507 338.699 28.07 335.45C37.6257 329.868 47.6968 326.021 58.9434 325.988C72.367 325.948 84.0596 330.924 94.8759 338.412C104.039 344.754 112.544 351.943 121.278 358.84C132.767 367.911 144.881 375.896 159.359 379.468C175.609 383.476 191.741 382.882 207.755 378.045C201.327 377.639 195.021 376.605 188.815 374.958C173.148 370.8 159.55 362.735 146.936 352.827C137.111 345.111 127.999 336.565 118.52 328.445C108.112 319.53 97.0574 311.693 83.5704 308.108C71.2183 304.825 59.0197 305.221 47.1217 310.238C46.0392 310.695 44.9048 311.426 43.8215 310.318C42.7464 309.219 43.1428 307.942 43.6548 306.755C45.215 303.137 47.5743 300.035 50.1439 297.096C61.3166 284.32 75.2543 276.524 92.1327 274.245C108.549 272.027 123.711 275.9 137.882 284.132C149.391 290.817 159.237 299.581 168.688 308.835C171.347 311.439 174.089 313.959 177.155 316.861C177.384 313.279 177.699 310.158 177.762 307.032C178.001 295.043 178.05 283.05 178.379 271.064C178.704 259.196 179.895 247.456 184.927 236.453C187.257 231.357 187.785 227.352 187.976 221.886C188.412 209.425 193.714 199.236 203.417 191.468C207.66 188.07 211.611 189.403 213.595 194.45C214.057 195.624 214.429 196.834 214.907 198.214C216.369 196.603 217.705 195.098 219.077 193.626C220.448 192.155 222.047 190.974 223.917 190.22C227.971 188.583 231.036 190.184 232.018 194.414C233 198.649 232.093 202.791 231.273 206.906C230.486 210.857 229.463 214.761 228.503 218.86C230.629 219.488 232.686 220.022 234.693 220.7C241.047 222.848 246.062 226.689 249.292 232.628C250.125 234.158 251.382 234.911 252.886 235.542C260.364 238.681 267.917 241.673 274.798 246.047C277.378 247.687 279.589 249.731 281.095 252.437C282.241 254.496 284.704 267.904 284.212 270.232C282.314 279.219 276.539 284.992 268.361 288.486C263.649 290.499 258.557 291.17 253.453 291.442C247.763 291.745 247.737 291.697 248.333 297.209C249.671 309.587 251.062 321.96 252.368 334.342C252.723 337.712 252.853 341.105 253.098 344.664C258.019 343.561 262.175 341.264 266.416 339.129C267.417 340.523 266.729 341.542 266.36 342.511C262.792 351.882 256.709 359.461 249.151 365.863C234.577 378.208 217.811 386.234 199.002 389.393C169.135 394.409 142.212 387.526 118.557 368.35C108.186 359.943 97.9886 351.301 86.8509 343.875C79.0823 338.695 70.5946 335.405 61.2626 334.94C53.1119 334.534 45.3124 336.438 37.9951 340.114C36.0072 341.112 34.0045 342.104 32.114 343.269C21.9042 349.562 11.8482 345.115 5.94645 337.125C2.1527 331.989 0.240417 326.125 0.238493 319.759C0.209853 224.909 0.20232 130.058 0.23241 35.2072C0.238464 16.1235 16.2302 -0.0306386 35.3479 -0.0587027C92.8007 -0.143037 150.254 -0.0816535 207.707 -0.0876032C212.102 -0.0880579 215.71 1.59741 218.76 4.69709C238.275 24.5304 257.815 44.3391 277.324 64.1787C283.176 70.13 288.887 76.2206 294.79 82.1196C298.217 85.5433 299.781 89.6194 299.781 94.3296C299.788 168.844 299.798 243.358 299.742 317.872C299.728 336.101 286.442 351.616 268.502 354.672C268.033 354.752 267.557 354.846 266.921 354.41C267.323 352.355 269.052 350.858 269.692 348.864C270.601 346.035 272.374 344.331 275.189 342.896C285.69 337.544 290.919 328.705 290.925 316.888C290.944 280.823 290.941 244.757 290.955 208.692C290.969 170.799 290.994 132.907 291.015 95.0141C291.016 91.7288 291.017 91.7349 287.751 91.7341C269.846 91.7297 251.942 91.7329 234.038 91.7123C218.88 91.6948 207.632 80.5559 207.571 65.3768C207.499 47.6621 207.549 29.947 207.54 12.2321C207.539 8.74517 207.527 8.73839 203.962 8.73824C158.285 8.73635 112.608 8.73656 66.6918 8.73636ZM194.738 236.292C189.258 245.875 187.648 256.415 187.165 267.205C186.334 285.756 187.344 304.369 185.282 322.877C185.153 324.033 185.582 324.815 186.454 325.545C192.815 330.867 199.527 335.661 206.982 339.362C218.093 344.878 229.708 347.862 242.228 346.565C244.012 346.381 244.717 345.98 244.468 343.972C243.903 339.411 243.695 334.807 243.232 330.231C241.988 317.925 240.669 305.626 239.432 293.319C239.303 292.035 238.801 291.509 237.537 291.416C235.073 291.236 232.654 290.734 230.283 290.056C227.648 289.303 225.186 288.139 223.353 286.055C222.061 284.586 221.546 282.759 222.807 281.029C224.151 279.185 225.938 279.496 227.697 280.502C229.508 281.538 231.439 282.222 233.49 282.623C241.075 284.108 248.674 283.856 256.282 282.875C260.125 282.38 263.912 281.67 267.711 279.675C264.814 279.053 262.265 278.554 259.743 277.948C258.27 277.594 256.836 277.066 255.828 275.822C254.844 274.607 254.473 273.287 255.368 271.872C256.22 270.527 257.478 269.974 259.052 270.299C259.749 270.442 260.418 270.722 261.106 270.917C265.361 272.127 269.67 272.674 274.067 271.84C276.493 271.379 276.327 269.559 276.133 267.752C275.946 266.01 275.228 264.981 273.217 265.199C270.889 265.451 268.595 265.162 266.527 263.955C264.179 262.585 263.218 260.429 264.081 258.648C264.957 256.841 266.766 256.401 269.495 257.349C271.008 257.875 272.503 258.266 273.995 257.073C273.179 254.377 271.014 253.147 268.864 251.976C262.432 248.473 255.745 245.508 248.949 242.791C245.949 241.591 243.619 239.706 242.153 236.781C241.106 234.689 239.596 232.972 237.692 231.585C232.041 227.471 225.612 226.595 218.863 227.012C216.644 227.149 214.758 227.549 213.786 230.072C213.012 232.078 210.828 232.673 208.97 231.915C207.096 231.152 206.029 229.294 206.692 227.266C207.991 223.296 208.421 219.197 208.703 215.09C209.059 209.93 208.208 204.881 206.887 199.609C203.484 202.205 201.528 205.447 199.82 208.839C197.231 213.984 195.471 219.491 197.021 225.15C198.182 229.388 197.524 232.745 194.738 236.292ZM121.301 286.133C98.3013 277.83 74.4589 285.351 63.0492 297.291C64.1931 297.291 65.2149 297.339 66.2311 297.284C77.0349 296.695 87.2161 299.2 97.0184 303.503C108.897 308.719 118.876 316.714 128.53 325.16C139.591 334.837 150.359 344.868 162.648 353.05C178.37 363.518 195.403 369.66 214.559 369.4C227.246 369.228 237.877 364.53 246.941 355.905C247.327 355.537 247.988 355.232 247.847 354.437C247.529 354.437 247.287 354.397 247.062 354.442C236.614 356.521 226.341 355.516 216.21 352.579C202.49 348.602 190.84 340.981 180.102 331.828C170.843 323.936 162.394 315.169 153.363 307.027C143.863 298.463 133.816 290.753 121.301 286.133ZM243.762 42.3008C234.656 33.3878 225.55 24.4747 216.522 15.6379C216.47 16.2615 216.336 17.1234 216.335 17.9854C216.32 34.1038 216.2 50.2233 216.365 66.3399C216.46 75.6365 224.04 82.8597 233.281 82.8747C248.791 82.8998 264.3 82.8728 279.81 82.8679C280.805 82.8675 281.8 82.8678 283.51 82.8678C269.984 69.063 256.991 55.8024 243.762 42.3008ZM216.75 214.804C216.867 216.184 216.291 217.577 216.695 218.959C220.152 218.71 220.147 218.709 220.931 215.689C221.149 214.848 221.436 214.025 221.64 213.181C222.692 208.835 223.939 204.529 224.628 199.451C220.151 203.934 216.879 208.319 216.75 214.804Z" fill="currentColor"/>
<path d="M158.367 102.019C187.252 102.017 215.898 102.012 244.544 102.013C257.916 102.013 266.328 111.028 265.597 124.402C265.42 127.644 265.741 130.909 265.73 134.163C265.682 147.823 265.536 161.483 265.537 175.144C265.539 189.754 265.696 204.363 265.717 218.974C265.723 222.94 265.474 226.905 265.73 230.874C265.796 231.885 265.86 232.943 264.977 234.281C262.497 233.152 259.905 232.073 257.415 230.793C256.335 230.238 256.689 228.95 256.689 227.95C256.674 207.694 256.674 187.437 256.676 167.181C256.678 152.326 256.689 137.472 256.694 122.617C256.696 115.015 252.495 110.782 244.922 110.781C179.355 110.77 113.787 110.761 48.22 110.756C40.5078 110.756 36.242 115.011 36.2405 122.718C36.2329 162.039 36.2329 201.361 36.2358 240.682C36.2364 248.311 40.9234 253.079 48.5995 252.936C76.1274 252.425 103.658 252.76 131.187 252.574C144.633 252.483 158.079 252.453 171.525 252.345C172.984 252.334 173.468 252.726 173.369 254.253C172.969 260.417 173.015 260.375 166.785 260.463C140.133 260.84 113.477 260.795 86.8256 261.048C73.8585 261.172 60.8907 261.307 47.9229 261.356C37.7078 261.395 29.6608 255.083 27.6833 245.559C27.4119 244.252 27.3768 242.878 27.3762 241.535C27.3601 201.737 27.3506 161.939 27.3687 122.141C27.3739 110.513 35.9038 102.023 47.6037 102.017C84.4452 101.998 121.287 102.016 158.367 102.019Z" fill="currentColor"/>
<path d="M61.923 135.726C63.6171 135.101 65.1968 134.96 66.7924 134.96C84.5254 134.958 102.258 134.944 119.991 134.974C126.081 134.985 129.849 137.551 131.023 142.436C131.278 143.498 131.291 144.635 131.292 145.738C131.306 163.52 131.301 181.302 131.3 199.085C131.299 205.883 127.536 209.682 120.662 209.724C113.903 209.765 107.144 209.731 100.384 209.729C89.0926 209.725 77.8006 209.753 66.509 209.702C60.8345 209.677 57.2746 207.213 55.8995 202.624C55.5728 201.533 55.5545 200.436 55.5543 199.325C55.5507 181.384 55.572 163.443 55.5313 145.502C55.5208 140.878 57.3835 137.567 61.923 135.726ZM80.7775 200.728C93.7416 200.726 106.706 200.707 119.67 200.743C121.416 200.748 122.489 200.544 122.48 198.337C122.41 181.028 122.426 163.719 122.471 146.41C122.476 144.686 121.935 144.012 120.153 144.016C102.337 144.06 84.5217 144.064 66.7061 144.023C64.9237 144.019 64.3737 144.689 64.3782 146.41C64.4232 163.719 64.4303 181.028 64.3852 198.337C64.3802 200.246 65.1213 200.806 66.9389 200.767C71.3909 200.673 75.8461 200.731 80.7775 200.728Z" fill="currentColor"/>
<path d="M225.617 162.649C201.855 162.644 178.321 162.644 154.787 162.626C153.603 162.625 152.38 162.618 151.243 162.337C149.042 161.793 147.946 160.167 147.848 157.983C147.752 155.846 149.304 154.093 151.549 153.672C152.477 153.498 153.445 153.49 154.395 153.49C178.247 153.482 202.099 153.482 225.95 153.491C230.106 153.492 232.368 155.038 232.443 157.863C232.525 160.957 230.231 162.622 225.617 162.649Z" fill="currentColor"/>
<path d="M161.71 178.722C169.332 178.726 176.716 178.718 184.099 178.747C185.122 178.751 186.18 178.796 187.159 179.057C189.308 179.629 190.587 181.061 190.561 183.346C190.534 185.633 189.208 186.999 187.057 187.557C186.3 187.754 185.49 187.821 184.704 187.822C174.621 187.837 164.538 187.831 154.455 187.823C153.742 187.822 153.023 187.8 152.316 187.713C149.563 187.373 147.835 185.687 147.814 183.362C147.792 180.984 149.676 178.959 152.423 178.8C155.43 178.626 158.454 178.736 161.71 178.722Z" fill="currentColor"/>
<path d="M234.389 247.888C230.839 251.621 225.597 252.27 221.481 249.626C217.647 247.164 217.745 242.838 221.815 240.785C225.352 239.001 229.041 239.071 232.557 240.929C235.298 242.377 235.928 244.875 234.389 247.888Z" fill="currentColor"/>
</g>
<defs>
<clipPath id="clip0_4002_544">
<rect width="300" height="390" fill="white"/>
</clipPath>
</defs>
</svg>
